<!--?xml version="1.0" standalone="no"?-->
              <svg id="sw-js-blob-svg" viewBox="0 0 100 100" xmlns="http://www.w3.org/2000/svg" version="1.1">
                    <defs> 
                        <linearGradient id="sw-gradient" x1="0" x2="1" y1="1" y2="0">
                            <stop id="stop1" stop-color="rgba(248, 117, 55, 1)" offset="0%"></stop>
                            <stop id="stop2" stop-color="rgba(251, 168, 31, 1)" offset="100%"></stop>
                        </linearGradient>
                    </defs>
                <path fill="url(#sw-gradient)" d="M24.8,-27.8C32.7,-22.8,40.3,-15.6,40.5,-8.1C40.7,-0.5,33.5,7.4,28.4,16.5C23.2,25.6,20,35.9,13.2,40C6.4,44.1,-4.1,42,-11.5,37C-18.9,31.9,-23.2,23.9,-25.9,16.3C-28.7,8.7,-29.9,1.6,-29.9,-6.5C-29.9,-14.6,-28.7,-23.7,-23.5,-29.2C-18.4,-34.7,-9.2,-36.6,-0.4,-36.1C8.4,-35.7,16.8,-32.8,24.8,-27.8Z" width="100%" height="100%" transform="translate(50 50)" stroke-width="0" style="transition: all 0.3s ease 0s;"></path>
              </svg>