<!--?xml version="1.0" standalone="no"?-->
              <svg id="sw-js-blob-svg" viewBox="0 0 100 100" xmlns="http://www.w3.org/2000/svg" version="1.1">
                    <defs> 
                        <linearGradient id="sw-gradient" x1="0" x2="1" y1="1" y2="0">
                            <stop id="stop1" stop-color="rgba(186.202, 55, 248, 1)" offset="0%"></stop>
                            <stop id="stop2" stop-color="rgba(255, 66.951, 8.834, 1)" offset="100%"></stop>
                        </linearGradient>
                    </defs>
                <path fill="url(#sw-gradient)" d="M23.4,-27.2C30.9,-21.5,38,-14.7,39.3,-7C40.5,0.7,35.8,9.4,30.1,15.7C24.4,22,17.7,26,9.8,30.3C2,34.6,-7,39.2,-13.3,36.8C-19.6,34.4,-23.3,25,-26.2,16.7C-29.2,8.5,-31.3,1.3,-31.4,-6.9C-31.6,-15.1,-29.9,-24.3,-24.3,-30.3C-18.7,-36.2,-9.4,-39,-0.7,-38.1C7.9,-37.2,15.8,-32.8,23.4,-27.2Z" width="100%" height="100%" transform="translate(50 50)" stroke-width="0" style="transition: all 0.3s ease 0s;"></path>
              </svg>