<svg width="590" height="594" viewBox="0 0 590 594" fill="none" xmlns="http://www.w3.org/2000/svg">
<path d="M255.436 187.74C356.037 150.896 455.496 169.919 477.584 230.229C499.671 290.539 436.023 369.297 335.422 406.141C234.821 442.985 135.362 423.962 113.274 363.652C91.1864 303.343 154.834 224.584 255.436 187.74Z" fill="url(#paint0_linear_1_393)"/>
<path d="M317.089 219.43C338.942 177.437 390.699 161.11 432.692 182.963C474.685 204.816 491.012 256.573 469.159 298.566C447.307 340.559 395.549 356.886 353.556 335.033C311.563 313.181 295.236 261.423 317.089 219.43Z" fill="#0080FC"/>
<path d="M317.089 219.43C338.942 177.437 390.699 161.11 432.692 182.963C474.685 204.816 491.012 256.573 469.159 298.566C447.307 340.559 395.549 356.886 353.556 335.033C311.563 313.181 295.236 261.423 317.089 219.43Z" fill="#0080FC"/>
<path d="M317.089 219.43C338.942 177.437 390.699 161.11 432.692 182.963C474.685 204.816 491.012 256.573 469.159 298.566C447.307 340.559 395.549 356.886 353.556 335.033C311.563 313.181 295.236 261.423 317.089 219.43Z" fill="#0080FC"/>
<defs>
<linearGradient id="paint0_linear_1_393" x1="113.274" y1="363.652" x2="477.584" y2="230.229" gradientUnits="userSpaceOnUse">
<stop stop-color="#0080FC" stop-opacity="0.114332"/>
<stop offset="0.964983" stop-color="#0080FC"/>
<stop offset="1" stop-color="#0080FC" stop-opacity="0"/>
</linearGradient>
</defs>
</svg>
