<svg width="185" height="604" viewBox="0 0 185 604" fill="none" xmlns="http://www.w3.org/2000/svg">
<line x1="70" y1="-90" x2="70" y2="401" stroke="#5B5B5B" stroke-width="4"/>
<path d="M112.242 416.521C104.812 416.521 98.1784 418.111 92.3408 421.291C86.5032 424.366 81.5146 428.871 77.3752 434.808C73.2358 440.744 70.0516 448.006 67.8227 456.593C65.6999 465.074 64.6386 474.721 64.6386 485.534C64.6386 500.163 66.496 512.46 70.2108 522.425C73.9257 532.39 79.5511 539.917 87.0869 545.005C94.7289 550.094 104.281 552.638 115.744 552.638C126.146 552.638 136.123 551.207 145.676 548.345C155.334 545.482 165.046 542.037 174.811 538.009V591.12C164.515 595.678 153.954 598.965 143.128 600.979C132.408 602.993 120.998 604 108.898 604C83.6374 604 62.9403 599.018 46.8072 589.053C30.7803 578.982 18.9458 565.041 11.3038 547.232C3.76793 529.422 0 508.75 0 485.216C0 467.618 2.44119 451.504 7.32358 436.875C12.3121 422.246 19.5826 409.577 29.1351 398.87C38.6876 388.057 50.469 379.735 64.4793 373.905C78.5958 367.968 94.7289 365 112.879 365C124.129 365 135.964 366.325 148.382 368.975C160.906 371.52 173.112 375.654 185 381.379L165.736 430.832C157.245 426.804 148.647 423.412 139.944 420.655C131.241 417.899 122.007 416.521 112.242 416.521Z" fill="#FABD03"/>
<ellipse cx="70" cy="386" rx="5" ry="6" fill="#5B5B5B"/>
</svg>
