<svg width="161" height="643" viewBox="0 0 161 643" fill="none" xmlns="http://www.w3.org/2000/svg">
<line x1="77" y1="-90" x2="77" y2="493" stroke="#5B5B5B" stroke-width="4"/>
<path d="M161 546.056C161 567.684 156.892 585.665 148.675 599.999C140.459 614.332 128.869 625.104 113.907 632.313C99.0303 639.438 81.5163 643 61.3642 643H0V457H65.6454C86.0569 457 103.355 460.435 117.539 467.305C131.723 474.175 142.491 484.226 149.843 497.457C157.281 510.688 161 526.888 161 546.056ZM107.809 547.837C107.809 536.557 106.252 527.227 103.139 519.848C100.111 512.384 95.5275 506.829 89.3868 503.182C83.246 499.45 75.5052 497.584 66.1644 497.584H51.245V601.78H62.6616C78.2297 601.78 89.6463 597.369 96.9114 588.549C104.176 579.643 107.809 566.073 107.809 547.837Z" fill="#109D58"/>
<ellipse cx="76" cy="469" rx="5" ry="6" fill="#5B5B5B"/>
</svg>
