<svg width="146" height="595" viewBox="0 0 146 595" fill="none" xmlns="http://www.w3.org/2000/svg">
<line x1="95" y1="-90" x2="95" y2="446" stroke="#5B5B5B" stroke-width="4"/>
<path d="M73.5739 494.17H146V584.871C137.353 587.864 127.444 590.319 116.272 592.238C105.1 594.079 93.3926 595 81.1494 595C65.0037 595 50.8475 591.854 38.6808 585.562C26.5142 579.269 17.0257 569.716 10.2154 556.901C3.40514 544.009 0 527.741 0 508.097C0 490.448 3.36688 475.216 10.1006 462.401C16.8344 449.51 26.7437 439.572 39.8286 432.589C52.99 425.53 69.0975 422 88.1509 422C98.6342 422 108.582 422.998 117.994 424.993C127.406 426.988 135.593 429.52 142.557 432.589L128.209 468.271C122.164 465.279 115.889 463.053 109.385 461.595C102.881 460.061 95.8795 459.293 88.3805 459.293C78.3564 459.293 70.2835 461.557 64.1619 466.084C58.1169 470.612 53.717 476.674 50.9623 484.271C48.2075 491.791 46.8302 500.117 46.8302 509.248C46.8302 519.684 48.2841 528.509 51.1918 535.722C54.1761 542.858 58.4995 548.306 64.1619 552.067C69.9009 555.75 76.826 557.591 84.9371 557.591C87.6153 557.591 90.8674 557.4 94.6934 557.016C98.5959 556.632 101.542 556.172 103.531 555.635V529.276H73.5739V494.17Z" fill="#4286F5"/>
<ellipse cx="96" cy="434" rx="5" ry="6" fill="#5B5B5B"/>
</svg>
