<svg width="1918" height="928" viewBox="0 0 1918 928" fill="none" xmlns="http://www.w3.org/2000/svg">
<g filter="url(#filter0_d_35_129)">
<rect x="-901" width="3087" height="809" fill="#0080FC"/>
</g>
<path opacity="0.07" d="M237.6 328.4C210.133 328.4 184.8 322 161.6 309.2C138.667 296.133 120.4 278.267 106.8 255.6C93.2 232.667 86.4 207.067 86.4 178.8C86.4 150.533 93.2 125.067 106.8 102.4C120.4 79.4667 138.667 61.6 161.6 48.8C184.8 35.7333 210.133 29.2 237.6 29.2C260 29.2 280.4 33.2 298.8 41.2C317.467 48.9333 333.467 60 346.8 74.4L309.6 110.8C300 100.667 289.333 93.0666 277.6 88C266.133 82.9333 252.667 80.4 237.2 80.4C219.6 80.4 203.467 84.5333 188.8 92.8C174.133 100.8 162.4 112.4 153.6 127.6C145.067 142.533 140.8 159.6 140.8 178.8C140.8 198 145.2 215.2 154 230.4C162.8 245.333 174.533 256.933 189.2 265.2C204.133 273.2 220.4 277.2 238 277.2C264.667 277.2 286.533 269.333 303.6 253.6C308.933 248.8 313.6 242.667 317.6 235.2C321.6 227.733 324.533 219.6 326.4 210.8H236.4V164.8H376.8C378.667 172.267 379.6 180.667 379.6 190C379.6 208.933 376.667 226.533 370.8 242.8C365.2 259.067 356.533 273.333 344.8 285.6C332 299.467 316.533 310.133 298.4 317.6C280.267 324.8 260 328.4 237.6 328.4ZM431.269 35.6H528.069C557.935 35.6 583.935 41.6 606.069 53.6C628.202 65.6 645.269 82.4 657.269 104C669.269 125.6 675.269 150.533 675.269 178.8C675.269 207.067 669.269 232 657.269 253.6C645.269 275.2 628.202 292 606.069 304C583.935 316 557.935 322 528.069 322H431.269V35.6ZM525.669 270.8C556.602 270.8 580.202 262.667 596.469 246.4C612.735 229.867 620.869 207.333 620.869 178.8C620.869 150.267 612.735 127.867 596.469 111.6C580.202 95.0667 556.602 86.8 525.669 86.8H485.269V270.8H525.669Z" fill="black"/>
<g opacity="0.05">
<path d="M225.2 713.4C200.133 713.4 178 706.333 158.8 692.2C139.6 678.067 126.133 658.067 118.4 632.2L169.2 612.2C173.2 627.4 180 639.533 189.6 648.6C199.2 657.667 211.2 662.2 225.6 662.2C237.6 662.2 247.867 659.267 256.4 653.4C264.933 647.267 269.2 638.867 269.2 628.2C269.2 617.533 265.067 608.867 256.8 602.2C248.8 595.267 234.4 587.933 213.6 580.2L196 573.8C177.6 567.4 161.867 557.667 148.8 544.6C135.733 531.267 129.2 514.6 129.2 494.6C129.2 479.667 133.067 466.067 140.8 453.8C148.533 441.533 159.467 431.933 173.6 425C187.733 417.8 203.733 414.2 221.6 414.2C247.467 414.2 267.867 420.333 282.8 432.6C297.733 444.6 308 458.733 313.6 475L266 495C263.067 486.2 257.867 478.867 250.4 473C243.2 466.867 233.867 463.8 222.4 463.8C210.667 463.8 200.933 466.6 193.2 472.2C185.733 477.533 182 484.6 182 493.4C182 501.933 185.6 509.267 192.8 515.4C200 521.267 211.867 527 228.4 532.6L246.4 538.6C271.2 547.133 290.133 558.467 303.2 572.6C316.533 586.467 323.2 604.733 323.2 627.4C323.2 646.067 318.4 661.933 308.8 675C299.2 687.8 286.8 697.4 271.6 703.8C256.667 710.2 241.2 713.4 225.2 713.4ZM541.947 713.4C514.214 713.4 488.88 706.867 465.947 693.8C443.014 680.467 424.88 662.467 411.547 639.8C398.48 616.867 391.947 591.533 391.947 563.8C391.947 536.067 398.48 510.867 411.547 488.2C424.88 465.267 443.014 447.267 465.947 434.2C488.88 420.867 514.214 414.2 541.947 414.2C585.147 414.2 620.88 429.8 649.147 461L611.147 497.8C592.747 476.2 569.814 465.4 542.347 465.4C524.48 465.4 508.214 469.533 493.547 477.8C478.88 485.8 467.28 497.267 458.747 512.2C450.48 527.133 446.347 544.333 446.347 563.8C446.347 583.267 450.48 600.467 458.747 615.4C467.28 630.333 478.88 641.933 493.547 650.2C508.214 658.2 524.48 662.2 542.347 662.2C572.48 662.2 597.68 649.667 617.947 624.6L656.347 661C642.214 678.067 625.414 691.133 605.947 700.2C586.747 709 565.414 713.4 541.947 713.4Z" fill="black"/>
</g>
<defs>
<filter id="filter0_d_35_129" x="-905" y="0" width="3095" height="817" filterUnits="userSpaceOnUse" color-interpolation-filters="sRGB">
<feFlood flood-opacity="0" result="BackgroundImageFix"/>
<feColorMatrix in="SourceAlpha" type="matrix" values="0 0 0 0 0 0 0 0 0 0 0 0 0 0 0 0 0 0 127 0" result="hardAlpha"/>
<feOffset dy="4"/>
<feGaussianBlur stdDeviation="2"/>
<feComposite in2="hardAlpha" operator="out"/>
<feColorMatrix type="matrix" values="0 0 0 0 0 0 0 0 0 0 0 0 0 0 0 0 0 0 0.25 0"/>
<feBlend mode="normal" in2="BackgroundImageFix" result="effect1_dropShadow_35_129"/>
<feBlend mode="normal" in="SourceGraphic" in2="effect1_dropShadow_35_129" result="shape"/>
</filter>
</defs>
</svg>
