<svg width="387" height="711" viewBox="0 0 387 711" fill="none" xmlns="http://www.w3.org/2000/svg">
<path fill-rule="evenodd" clip-rule="evenodd" d="M673.675 250.778C680.061 322.069 652.7 387.675 630.565 455.709C605.181 533.733 602.394 629.018 535.302 676.085C467.101 723.929 372.467 715.277 292.151 693.115C219.398 673.04 162.511 619.417 115.517 560.253C74.3986 508.487 61.2337 444.284 43.8241 380.482C25.0117 311.538 -19.2705 239.147 10.1392 174.066C39.5487 108.985 122.542 93.5719 187.146 63.3219C245.935 35.7948 303.597 10.7287 368.359 6.33412C445.566 1.09495 532.472 -12.6329 592.947 35.7849C654.159 84.7924 666.673 172.619 673.675 250.778Z" fill="#E43E2B"/>
</svg>
