<svg width="135" height="644" viewBox="0 0 135 644" fill="none" xmlns="http://www.w3.org/2000/svg">
<line x1="51" y1="-90" x2="51" y2="485" stroke="#5B5B5B" stroke-width="4"/>
<path d="M135 582.874C135 593.325 132.363 603.25 127.09 612.647C121.816 621.956 113.599 629.509 102.437 635.305C91.3623 641.102 77.0361 644 59.458 644C50.6689 644 42.9346 643.605 36.2549 642.814C29.6631 642.024 23.5107 640.751 17.7979 638.994C12.085 637.15 6.15234 634.778 0 631.88V585.509C10.459 590.778 21.0059 594.818 31.6406 597.629C42.2754 600.351 51.8994 601.713 60.5127 601.713C65.6982 601.713 69.917 601.098 73.1689 599.868C76.5088 598.639 78.9697 596.97 80.5518 594.862C82.1338 592.667 82.9248 590.164 82.9248 587.353C82.9248 584.016 81.7383 581.206 79.3652 578.922C77.0801 576.551 73.3887 574.092 68.291 571.545C63.1934 568.998 56.4697 565.836 48.1201 562.06C41.001 558.723 34.541 555.297 28.7402 551.784C23.0273 548.271 18.1055 544.275 13.9746 539.796C9.93164 535.23 6.81152 529.916 4.61426 523.856C2.41699 517.796 1.31836 510.639 1.31836 502.383C1.31836 490 4.35059 479.637 10.415 471.293C16.5674 462.862 25.0928 456.539 35.9912 452.323C46.9775 448.108 59.6338 446 73.96 446C86.5283 446 97.8223 447.405 107.842 450.216C117.949 453.026 127.002 456.232 135 459.832L119.048 500.012C110.786 496.236 102.656 493.25 94.6582 491.054C86.6602 488.77 79.2334 487.629 72.3779 487.629C67.8955 487.629 64.2041 488.2 61.3037 489.341C58.4912 490.395 56.3818 491.844 54.9756 493.689C53.6572 495.533 52.998 497.641 52.998 500.012C52.998 502.998 54.1406 505.677 56.4258 508.048C58.7988 510.419 62.71 513.01 68.1592 515.82C73.6963 518.543 81.2109 522.1 90.7031 526.491C100.107 530.707 108.105 535.273 114.697 540.192C121.289 545.022 126.299 550.862 129.727 557.713C133.242 564.475 135 572.862 135 582.874Z" fill="#EA4235"/>
<ellipse cx="52" cy="460" rx="5" ry="6" fill="#5B5B5B"/>
</svg>
