<svg width="262" height="265" viewBox="0 0 262 265" fill="none" xmlns="http://www.w3.org/2000/svg">
<path d="M161.89 180.465C117.67 209.196 67.8593 210.996 50.6357 184.486C33.4122 157.975 55.2976 113.194 99.5183 84.4642C143.739 55.734 193.549 53.9342 210.773 80.4442C227.997 106.954 206.111 151.735 161.89 180.465Z" fill="url(#paint0_linear_1_396)"/>
<path d="M128.827 172.035C122.956 194.584 99.9163 208.104 77.3671 202.233C54.818 196.361 41.2981 173.322 47.1696 150.773C53.041 128.224 76.0805 114.704 98.6296 120.575C121.179 126.447 134.699 149.486 128.827 172.035Z" fill="#FFD54A"/>
<path d="M128.827 172.035C122.956 194.584 99.9163 208.104 77.3671 202.233C54.818 196.361 41.2981 173.322 47.1696 150.773C53.041 128.224 76.0805 114.704 98.6296 120.575C121.179 126.447 134.699 149.486 128.827 172.035Z" fill="#FFD54A"/>
<path d="M128.827 172.035C122.956 194.584 99.9163 208.104 77.3671 202.233C54.818 196.361 41.2981 173.322 47.1696 150.773C53.041 128.224 76.0805 114.704 98.6296 120.575C121.179 126.447 134.699 149.486 128.827 172.035Z" fill="#FFD54A"/>
<defs>
<linearGradient id="paint0_linear_1_396" x1="210.773" y1="80.4442" x2="50.6357" y2="184.486" gradientUnits="userSpaceOnUse">
<stop stop-color="#FFD54A" stop-opacity="0"/>
<stop offset="0.571875" stop-color="#FFD54A" stop-opacity="0.394791"/>
<stop offset="1" stop-color="#FFD54A"/>
</linearGradient>
</defs>
</svg>
