<svg width="378" height="796" viewBox="0 0 378 796" fill="none" xmlns="http://www.w3.org/2000/svg">
<path fill-rule="evenodd" clip-rule="evenodd" d="M205.655 71.0494C261.003 105.449 274.602 179.766 300.468 242.57C330.561 315.635 401.129 385.187 368.653 466.809C335.915 549.089 223.308 550.29 155.566 606.752C88.0593 663.018 56.6057 781.425 -23.9108 794.008C-103.817 806.496 -137.657 702.575 -201.802 662.6C-270.043 620.073 -391.931 636.969 -410.519 553.075C-429.313 468.256 -307.912 397.351 -280.377 307.975C-250.901 212.298 -324.156 88.2094 -247.348 23.4323C-170.672 -41.234 -78.4503 53.1086 10.7115 62.4808C76.5168 69.3978 151.195 37.2016 205.655 71.0494Z" fill="#F0B501"/>
</svg>
